<svg width="118" height="24" viewBox="0 0 118 24" fill="none" xmlns="http://www.w3.org/2000/svg">
<path d="M46.9629 9.11328V10.6602H49.3477V11.709H46.9629V14.7383C46.9629 14.9727 46.9902 15.1699 47.0449 15.3301C47.1035 15.4863 47.1836 15.6094 47.2852 15.6992C47.3867 15.793 47.5078 15.8594 47.6484 15.8984C47.7891 15.9375 47.9434 15.957 48.1113 15.957C48.2324 15.957 48.3574 15.9512 48.4863 15.9395C48.6152 15.9277 48.7402 15.9121 48.8613 15.8926C48.9785 15.877 49.0879 15.8594 49.1895 15.8398C49.2949 15.8164 49.3828 15.7969 49.4531 15.7812L49.6055 16.748C49.5039 16.8105 49.3809 16.8652 49.2363 16.9121C49.0957 16.9551 48.9434 16.9922 48.7793 17.0234C48.6152 17.0547 48.4434 17.0781 48.2637 17.0938C48.0879 17.1133 47.9121 17.123 47.7363 17.123C47.416 17.123 47.1211 17.0801 46.8516 16.9941C46.5859 16.9043 46.3574 16.7656 46.166 16.5781C45.9746 16.3945 45.8242 16.1582 45.7148 15.8691C45.6094 15.5801 45.5566 15.2324 45.5566 14.8262V11.709H44.0215V10.6602H45.5566V9.11328H46.9629Z" fill="#50A4C2"/>
<path d="M36.9434 17V10.6602H38.209L38.2969 11.5625C38.3828 11.4414 38.4766 11.3301 38.5781 11.2285C38.6836 11.123 38.7949 11.0293 38.9121 10.9473C39.0996 10.8184 39.3047 10.7188 39.5273 10.6484C39.75 10.5781 39.9844 10.543 40.2305 10.543C40.5547 10.543 40.8516 10.5898 41.1211 10.6836C41.3906 10.7773 41.6211 10.9258 41.8125 11.1289C42.0039 11.332 42.1523 11.5918 42.2578 11.9082C42.3633 12.2207 42.416 12.5996 42.416 13.0449V17H41.0156V13.0684C41.0156 12.8066 40.9863 12.5879 40.9277 12.4121C40.8691 12.2363 40.7832 12.0957 40.6699 11.9902C40.5566 11.8848 40.4199 11.8105 40.2598 11.7676C40.0996 11.7207 39.916 11.6973 39.709 11.6973C39.5371 11.6973 39.377 11.7207 39.2285 11.7676C39.0801 11.8105 38.9453 11.873 38.8242 11.9551C38.7305 12.0176 38.6426 12.0938 38.5605 12.1836C38.4785 12.2734 38.4062 12.3711 38.3438 12.4766V17H36.9434Z" fill="#50A4C2"/>
<path d="M32.6953 17.1172C32.2266 17.1172 31.7969 17.0391 31.4062 16.8828C31.0195 16.7266 30.6875 16.5098 30.4102 16.2324C30.1328 15.959 29.918 15.6367 29.7656 15.2656C29.6172 14.8906 29.543 14.4863 29.543 14.0527V13.8125C29.543 13.3164 29.6211 12.8672 29.7773 12.4648C29.9336 12.0625 30.1484 11.7188 30.4219 11.4336C30.6953 11.1484 31.0117 10.9297 31.3711 10.7773C31.7344 10.6211 32.1211 10.543 32.5312 10.543C32.9883 10.543 33.3926 10.6211 33.7441 10.7773C34.0957 10.9297 34.3906 11.1426 34.6289 11.416C34.8672 11.6934 35.0469 12.0234 35.168 12.4062C35.2891 12.7891 35.3496 13.207 35.3496 13.6602V14.2637H30.9551V14.293C30.998 14.5703 31.0645 14.8027 31.1543 14.9902C31.2441 15.1777 31.3672 15.3457 31.5234 15.4941C31.6797 15.6504 31.8633 15.7715 32.0742 15.8574C32.2891 15.9434 32.5234 15.9863 32.7773 15.9863C33.125 15.9863 33.4492 15.9199 33.75 15.7871C34.0508 15.6504 34.2988 15.457 34.4941 15.207L35.2441 15.9336C35.0332 16.2383 34.709 16.5117 34.2715 16.7539C33.8379 16.9961 33.3125 17.1172 32.6953 17.1172ZM32.5254 11.6797C32.3262 11.6797 32.1406 11.7168 31.9688 11.791C31.8008 11.8613 31.6504 11.9629 31.5176 12.0957C31.3848 12.2324 31.2734 12.3965 31.1836 12.5879C31.0938 12.7793 31.0273 12.9961 30.9844 13.2383H33.9668V13.1445C33.9668 12.9609 33.9336 12.7793 33.8672 12.5996C33.8008 12.416 33.707 12.2559 33.5859 12.1191C33.4688 11.9863 33.3203 11.8809 33.1406 11.8027C32.9648 11.7207 32.7598 11.6797 32.5254 11.6797Z" fill="#50A4C2"/>
<path d="M22.8516 10.6602H26.2148V15.8398H28.0781V17H22.8516V15.8398H24.8027V11.8262H22.8516V10.6602ZM24.6738 9.01953C24.6738 8.90625 24.6934 8.80273 24.7324 8.70898C24.7715 8.61133 24.8281 8.52734 24.9023 8.45703C24.9727 8.39062 25.0566 8.33984 25.1543 8.30469C25.2559 8.26562 25.3691 8.24609 25.4941 8.24609C25.7051 8.24609 25.875 8.30078 26.0039 8.41016C26.1367 8.51562 26.2129 8.65234 26.2324 8.82031C26.2598 8.99219 26.2305 9.14258 26.1445 9.27148C26.0586 9.39648 25.9336 9.48047 25.7695 9.52344C25.6875 9.59766 25.5898 9.64648 25.4766 9.66992C25.3633 9.69336 25.2383 9.68359 25.1016 9.64062C24.9609 9.59766 24.8535 9.52148 24.7793 9.41211C24.709 9.29883 24.6738 9.16797 24.6738 9.01953Z" fill="#50A4C2"/>
<path d="M20.8945 13.8945C20.8945 14.1875 20.873 14.4668 20.8301 14.7324C20.7871 14.998 20.7246 15.2441 20.6426 15.4707C20.5488 15.7402 20.4238 15.9844 20.2676 16.2031C20.1113 16.4219 19.9238 16.6035 19.7051 16.748C19.5293 16.8652 19.332 16.9551 19.1133 17.0176C18.8984 17.084 18.6641 17.1172 18.4102 17.1172C18.1523 17.1172 17.918 17.0859 17.707 17.0234C17.4961 16.9609 17.3066 16.8691 17.1387 16.748C17.0527 16.6855 16.9707 16.6191 16.8926 16.5488C16.8184 16.4746 16.7461 16.3945 16.6758 16.3086L16.6113 17H15.3457V8H16.7461V11.2812C16.8281 11.1797 16.918 11.0879 17.0156 11.0059C17.1133 10.9238 17.2188 10.8516 17.332 10.7891C17.4805 10.707 17.6426 10.6465 17.8184 10.6074C17.998 10.5645 18.1914 10.543 18.3984 10.543C18.6719 10.543 18.9219 10.5801 19.1484 10.6543C19.3789 10.7246 19.5859 10.8262 19.7695 10.959C19.9258 11.0684 20.0645 11.2031 20.1855 11.3633C20.3105 11.5195 20.4199 11.6914 20.5137 11.8789C20.6387 12.1406 20.7324 12.4316 20.7949 12.752C20.8613 13.0723 20.8945 13.4121 20.8945 13.7715V13.8945ZM19.4941 13.7715C19.4941 13.5918 19.4824 13.418 19.459 13.25C19.4395 13.0781 19.4102 12.918 19.3711 12.7695C19.3164 12.5898 19.2441 12.4277 19.1543 12.2832C19.0684 12.1348 18.9512 12.0098 18.8027 11.9082C18.7051 11.8379 18.5938 11.7852 18.4688 11.75C18.3438 11.7148 18.2031 11.6973 18.0469 11.6973C17.8555 11.6973 17.6836 11.7246 17.5312 11.7793C17.3789 11.8301 17.2461 11.9043 17.1328 12.002C17.0508 12.0684 16.9766 12.1465 16.9102 12.2363C16.8477 12.3223 16.793 12.416 16.7461 12.5176V15.1426C16.8008 15.2598 16.8652 15.3672 16.9395 15.4648C17.0176 15.5586 17.1055 15.6426 17.2031 15.7168C17.3125 15.7949 17.4375 15.8574 17.5781 15.9043C17.7227 15.9473 17.8828 15.9688 18.0586 15.9688C18.2188 15.9688 18.3633 15.9492 18.4922 15.9102C18.6211 15.8672 18.7363 15.8105 18.8379 15.7402C18.9746 15.6426 19.0859 15.5195 19.1719 15.3711C19.2617 15.2188 19.3301 15.0488 19.377 14.8613C19.416 14.7207 19.4453 14.5684 19.4648 14.4043C19.4844 14.2402 19.4941 14.0703 19.4941 13.8945V13.7715Z" fill="#50A4C2"/>
<path d="M8.91211 10.6602L8.95312 11.3574C9.07422 11.1035 9.24023 10.9043 9.45117 10.7598C9.66602 10.6152 9.92383 10.543 10.2246 10.543C10.3809 10.543 10.5215 10.5605 10.6465 10.5957C10.7715 10.6309 10.8789 10.6855 10.9688 10.7598C11.0391 10.8145 11.1016 10.8809 11.1562 10.959C11.2109 11.0332 11.2578 11.1191 11.2969 11.2168C11.3516 11.127 11.4141 11.043 11.4844 10.9648C11.5547 10.8867 11.6309 10.8203 11.7129 10.7656C11.8184 10.6953 11.9355 10.6406 12.0645 10.6016C12.1973 10.5625 12.3418 10.543 12.498 10.543C12.7012 10.543 12.8867 10.5781 13.0547 10.6484C13.2266 10.7148 13.375 10.8184 13.5 10.959C13.625 11.1074 13.7207 11.3008 13.7871 11.5391C13.8574 11.7734 13.8926 12.0566 13.8926 12.3887V17H12.6035V12.377C12.6035 12.252 12.5898 12.1465 12.5625 12.0605C12.5352 11.9707 12.4961 11.8984 12.4453 11.8438C12.3945 11.793 12.332 11.7559 12.2578 11.7324C12.1875 11.709 12.1094 11.6973 12.0234 11.6973C11.9336 11.6973 11.8555 11.709 11.7891 11.7324C11.7227 11.7559 11.6641 11.7891 11.6133 11.832C11.5664 11.8711 11.5273 11.918 11.4961 11.9727C11.4648 12.0234 11.4414 12.082 11.4258 12.1484C11.4258 12.1641 11.4258 12.1836 11.4258 12.207C11.4258 12.2266 11.4258 12.2559 11.4258 12.2949V17H10.1602V12.3711C10.1602 12.2461 10.1465 12.1406 10.1191 12.0547C10.0957 11.9648 10.0586 11.8945 10.0078 11.8438C9.95703 11.793 9.89648 11.7559 9.82617 11.7324C9.75977 11.709 9.68359 11.6973 9.59766 11.6973C9.50391 11.6973 9.41992 11.7109 9.3457 11.7383C9.27539 11.7617 9.21484 11.7988 9.16406 11.8496C9.125 11.8848 9.08984 11.9258 9.05859 11.9727C9.03125 12.0195 9.00586 12.0723 8.98242 12.1309V17H7.69336V10.6602H8.91211Z" fill="#50A4C2"/>
<path d="M5.01562 15.0371H2.33789L1.75781 17H0.292969L3.07031 8.46875H4.31836L7.04883 17H5.58984L5.01562 15.0371ZM2.69531 13.8301H4.66992L3.69141 10.4551L2.69531 13.8301Z" fill="#50A4C2"/>
<path d="M116.086 15.2832C116.086 15.1738 116.061 15.0762 116.01 14.9902C115.963 14.9043 115.883 14.8223 115.77 14.7441C115.648 14.6738 115.49 14.6074 115.295 14.5449C115.1 14.4824 114.855 14.4238 114.562 14.3691C114.195 14.2949 113.859 14.2031 113.555 14.0938C113.254 13.9844 112.994 13.8516 112.775 13.6953C112.561 13.5469 112.393 13.3711 112.271 13.168C112.15 12.9648 112.09 12.7285 112.09 12.459C112.09 12.2012 112.15 11.957 112.271 11.7266C112.396 11.4922 112.574 11.2871 112.805 11.1113C113.031 10.9355 113.305 10.7969 113.625 10.6953C113.949 10.5938 114.309 10.543 114.703 10.543C115.125 10.543 115.504 10.5957 115.84 10.7012C116.176 10.8027 116.461 10.9434 116.695 11.123C116.926 11.3027 117.104 11.5156 117.229 11.7617C117.354 12.0078 117.416 12.2734 117.416 12.5586H116.016C116.016 12.4414 115.99 12.3301 115.939 12.2246C115.893 12.1152 115.822 12.0176 115.729 11.9316C115.619 11.8301 115.479 11.75 115.307 11.6914C115.135 11.6289 114.934 11.5977 114.703 11.5977C114.492 11.5977 114.307 11.6211 114.146 11.668C113.99 11.7109 113.861 11.7715 113.76 11.8496C113.658 11.9199 113.582 12.0039 113.531 12.1016C113.48 12.1953 113.455 12.2949 113.455 12.4004C113.455 12.5098 113.477 12.6094 113.52 12.6992C113.562 12.7852 113.639 12.8613 113.748 12.9277C113.85 12.998 113.99 13.0625 114.17 13.1211C114.354 13.1797 114.584 13.2324 114.861 13.2793C115.248 13.3496 115.602 13.4355 115.922 13.5371C116.242 13.6387 116.516 13.7637 116.742 13.9121C116.969 14.0684 117.145 14.252 117.27 14.4629C117.395 14.6738 117.457 14.9238 117.457 15.2129C117.457 15.4941 117.391 15.752 117.258 15.9863C117.129 16.2207 116.945 16.4219 116.707 16.5898C116.465 16.7578 116.176 16.8887 115.84 16.9824C115.504 17.0762 115.131 17.123 114.721 17.123C114.264 17.123 113.857 17.0625 113.502 16.9414C113.15 16.8203 112.855 16.6602 112.617 16.4609C112.375 16.2656 112.191 16.041 112.066 15.7871C111.941 15.5332 111.879 15.2754 111.879 15.0137H113.238C113.25 15.209 113.301 15.375 113.391 15.5117C113.484 15.6445 113.602 15.752 113.742 15.834C113.879 15.9199 114.035 15.9824 114.211 16.0215C114.387 16.0566 114.564 16.0742 114.744 16.0742C114.986 16.0742 115.197 16.0488 115.377 15.998C115.561 15.9473 115.707 15.8789 115.816 15.793C115.906 15.7227 115.973 15.6465 116.016 15.5645C116.062 15.4785 116.086 15.3848 116.086 15.2832Z" fill="#50A4C2"/>
<path d="M104.549 13.7832C104.549 13.3027 104.605 12.8652 104.719 12.4707C104.836 12.0723 105.004 11.7305 105.223 11.4453C105.438 11.1602 105.699 10.9395 106.008 10.7832C106.32 10.623 106.672 10.543 107.062 10.543C107.414 10.543 107.721 10.6055 107.982 10.7305C108.248 10.8516 108.482 11.0254 108.686 11.252V8H110.086V17H108.814L108.75 16.3379C108.547 16.5879 108.305 16.7812 108.023 16.918C107.742 17.0508 107.418 17.1172 107.051 17.1172C106.664 17.1172 106.316 17.0371 106.008 16.877C105.699 16.7129 105.438 16.4863 105.223 16.1973C105.008 15.9121 104.842 15.5742 104.725 15.1836C104.607 14.7891 104.549 14.3633 104.549 13.9062V13.7832ZM105.949 13.9062C105.949 14.1875 105.977 14.4531 106.031 14.7031C106.086 14.9531 106.172 15.1699 106.289 15.3535C106.406 15.5449 106.557 15.6953 106.74 15.8047C106.924 15.9102 107.145 15.9629 107.402 15.9629C107.719 15.9629 107.98 15.8945 108.188 15.7578C108.395 15.6172 108.561 15.4277 108.686 15.1895V12.4648C108.561 12.2305 108.395 12.0449 108.188 11.9082C107.984 11.7676 107.727 11.6973 107.414 11.6973C107.152 11.6973 106.928 11.752 106.74 11.8613C106.557 11.9707 106.408 12.1211 106.295 12.3125C106.174 12.5039 106.086 12.7266 106.031 12.9805C105.977 13.2305 105.949 13.498 105.949 13.7832V13.9062Z" fill="#50A4C2"/>
<path d="M97.5293 17V10.6602H98.7949L98.8828 11.5625C98.9688 11.4414 99.0625 11.3301 99.1641 11.2285C99.2695 11.123 99.3809 11.0293 99.498 10.9473C99.6855 10.8184 99.8906 10.7188 100.113 10.6484C100.336 10.5781 100.57 10.543 100.816 10.543C101.141 10.543 101.438 10.5898 101.707 10.6836C101.977 10.7773 102.207 10.9258 102.398 11.1289C102.59 11.332 102.738 11.5918 102.844 11.9082C102.949 12.2207 103.002 12.5996 103.002 13.0449V17H101.602V13.0684C101.602 12.8066 101.572 12.5879 101.514 12.4121C101.455 12.2363 101.369 12.0957 101.256 11.9902C101.143 11.8848 101.006 11.8105 100.846 11.7676C100.686 11.7207 100.502 11.6973 100.295 11.6973C100.123 11.6973 99.9629 11.7207 99.8145 11.7676C99.666 11.8105 99.5312 11.873 99.4102 11.9551C99.3164 12.0176 99.2285 12.0938 99.1465 12.1836C99.0645 12.2734 98.9922 12.3711 98.9297 12.4766V17H97.5293Z" fill="#50A4C2"/>
<path d="M94.4766 17L94.3945 16.1152C94.1797 16.4316 93.918 16.6797 93.6094 16.8594C93.3008 17.0352 92.9551 17.123 92.5723 17.123C92.2441 17.123 91.9434 17.0723 91.6699 16.9707C91.4004 16.8652 91.168 16.7031 90.9727 16.4844C90.7812 16.2656 90.6328 15.9863 90.5273 15.6465C90.4219 15.3027 90.3691 14.8926 90.3691 14.416V10.6602H91.7695V14.4277C91.7695 14.7207 91.791 14.9668 91.834 15.166C91.877 15.3613 91.9453 15.5176 92.0391 15.6348C92.1328 15.7559 92.252 15.8418 92.3965 15.8926C92.541 15.9434 92.7109 15.9688 92.9062 15.9688C93.1094 15.9688 93.291 15.9473 93.4512 15.9043C93.6113 15.8574 93.752 15.7949 93.873 15.7168C93.9746 15.6465 94.0645 15.5645 94.1426 15.4707C94.2207 15.373 94.2871 15.2656 94.3418 15.1484V10.6602H95.748V17H94.4766Z" fill="#50A4C2"/>
<path d="M82.8574 13.7715C82.8574 13.3105 82.9238 12.8848 83.0566 12.4941C83.1895 12.0996 83.3828 11.7578 83.6367 11.4688C83.8867 11.1797 84.1934 10.9531 84.5566 10.7891C84.9199 10.625 85.334 10.543 85.7988 10.543C86.2637 10.543 86.6777 10.625 87.041 10.7891C87.4082 10.9531 87.7188 11.1797 87.9727 11.4688C88.2227 11.7578 88.4141 12.0996 88.5469 12.4941C88.6797 12.8848 88.7461 13.3105 88.7461 13.7715V13.8945C88.7461 14.3594 88.6797 14.7871 88.5469 15.1777C88.4141 15.5684 88.2227 15.9082 87.9727 16.1973C87.7227 16.4863 87.4141 16.7129 87.0469 16.877C86.6836 17.041 86.2715 17.123 85.8105 17.123C85.3457 17.123 84.9297 17.041 84.5625 16.877C84.1953 16.7129 83.8867 16.4863 83.6367 16.1973C83.3828 15.9082 83.1895 15.5684 83.0566 15.1777C82.9238 14.7871 82.8574 14.3594 82.8574 13.8945V13.7715ZM84.2578 13.8945C84.2578 14.1797 84.2871 14.4492 84.3457 14.7031C84.4082 14.957 84.5039 15.1797 84.6328 15.3711C84.7578 15.5625 84.918 15.7148 85.1133 15.8281C85.3086 15.9375 85.541 15.9922 85.8105 15.9922C86.0723 15.9922 86.3008 15.9375 86.4961 15.8281C86.6914 15.7148 86.8516 15.5625 86.9766 15.3711C87.1016 15.1797 87.1934 14.957 87.252 14.7031C87.3145 14.4492 87.3457 14.1797 87.3457 13.8945V13.7715C87.3457 13.4941 87.3145 13.2285 87.252 12.9746C87.1895 12.7207 87.0977 12.498 86.9766 12.3066C86.8477 12.1152 86.6855 11.9629 86.4902 11.8496C86.2988 11.7363 86.0684 11.6797 85.7988 11.6797C85.5332 11.6797 85.3027 11.7363 85.1074 11.8496C84.916 11.9629 84.7578 12.1152 84.6328 12.3066C84.5039 12.498 84.4082 12.7207 84.3457 12.9746C84.2871 13.2285 84.2578 13.4941 84.2578 13.7715V13.8945Z" fill="#50A4C2"/>
<path d="M80.3203 14.8027C80.3203 14.6035 80.2793 14.4277 80.1973 14.2754C80.1152 14.123 80 13.9863 79.8516 13.8652C79.6953 13.752 79.5098 13.6504 79.2949 13.5605C79.084 13.4668 78.8477 13.3828 78.5859 13.3086C78.1836 13.1953 77.8125 13.0566 77.4727 12.8926C77.1367 12.7246 76.8496 12.5371 76.6113 12.3301C76.373 12.1191 76.1855 11.8809 76.0488 11.6152C75.916 11.3457 75.8496 11.043 75.8496 10.707C75.8496 10.3438 75.9277 10.0176 76.084 9.72852C76.2402 9.43555 76.4512 9.18555 76.7168 8.97852C76.9824 8.77539 77.291 8.62109 77.6426 8.51562C77.998 8.40625 78.3711 8.35156 78.7617 8.35156C79.1758 8.35156 79.5605 8.41602 79.916 8.54492C80.2754 8.66992 80.5879 8.8457 80.8535 9.07227C81.1191 9.30273 81.3281 9.57812 81.4805 9.89844C81.6367 10.2148 81.7148 10.5664 81.7148 10.9531H80.3203C80.3008 10.7383 80.2539 10.543 80.1797 10.3672C80.1094 10.1875 80.0098 10.0332 79.8809 9.9043C79.748 9.7793 79.5859 9.68164 79.3945 9.61133C79.207 9.53711 78.9902 9.5 78.7441 9.5C78.5293 9.5 78.3301 9.5293 78.1465 9.58789C77.9668 9.64258 77.8105 9.7207 77.6777 9.82227C77.5449 9.92773 77.4414 10.0547 77.3672 10.2031C77.293 10.3516 77.2559 10.5176 77.2559 10.7012C77.2598 10.8965 77.3105 11.0684 77.4082 11.2168C77.5059 11.3613 77.6367 11.4883 77.8008 11.5977C77.9688 11.707 78.1602 11.8027 78.375 11.8848C78.5938 11.9668 78.8223 12.043 79.0605 12.1133C79.3613 12.1992 79.6543 12.3066 79.9395 12.4355C80.2285 12.5605 80.4941 12.7129 80.7363 12.8926C81.0371 13.1191 81.2773 13.3906 81.457 13.707C81.6406 14.0195 81.7324 14.3809 81.7324 14.791C81.7324 15.1699 81.6523 15.5039 81.4922 15.793C81.3359 16.082 81.125 16.3223 80.8594 16.5137C80.5898 16.7129 80.2773 16.8633 79.9219 16.9648C79.5664 17.0625 79.1914 17.1113 78.7969 17.1113C78.3789 17.1113 77.9668 17.0469 77.5605 16.918C77.1543 16.7852 76.8008 16.5938 76.5 16.3438C76.2227 16.1094 76.002 15.834 75.8379 15.5176C75.6777 15.2012 75.5957 14.8379 75.5918 14.4277H76.998C77.0176 14.6895 77.0723 14.918 77.1621 15.1133C77.2559 15.3047 77.3828 15.4629 77.543 15.5879C77.6992 15.7168 77.8828 15.8125 78.0938 15.875C78.3086 15.9375 78.543 15.9688 78.7969 15.9688C79.0117 15.9688 79.2109 15.9434 79.3945 15.8926C79.582 15.8418 79.7441 15.7656 79.8809 15.6641C80.0137 15.5664 80.1191 15.4453 80.1973 15.3008C80.2793 15.1562 80.3203 14.9902 80.3203 14.8027Z" fill="#50A4C2"/>
<path fill-rule="evenodd" clip-rule="evenodd" d="M63 3.25C63.1989 3.25 63.3897 3.32902 63.5303 3.46967C63.671 3.61032 63.75 3.80109 63.75 4V20C63.75 20.1989 63.671 20.3897 63.5303 20.5303C63.3897 20.671 63.1989 20.75 63 20.75C62.8011 20.75 62.6103 20.671 62.4697 20.5303C62.329 20.3897 62.25 20.1989 62.25 20V4C62.25 3.80109 62.329 3.61032 62.4697 3.46967C62.6103 3.32902 62.8011 3.25 63 3.25ZM59 6.25C59.1989 6.25 59.3897 6.32902 59.5303 6.46967C59.671 6.61032 59.75 6.80109 59.75 7V17C59.75 17.1989 59.671 17.3897 59.5303 17.5303C59.3897 17.671 59.1989 17.75 59 17.75C58.8011 17.75 58.6103 17.671 58.4697 17.5303C58.329 17.3897 58.25 17.1989 58.25 17V7C58.25 6.80109 58.329 6.61032 58.4697 6.46967C58.6103 6.32902 58.8011 6.25 59 6.25ZM67 6.25C67.1989 6.25 67.3897 6.32902 67.5303 6.46967C67.671 6.61032 67.75 6.80109 67.75 7V17C67.75 17.1989 67.671 17.3897 67.5303 17.5303C67.3897 17.671 67.1989 17.75 67 17.75C66.8011 17.75 66.6103 17.671 66.4697 17.5303C66.329 17.3897 66.25 17.1989 66.25 17V7C66.25 6.80109 66.329 6.61032 66.4697 6.46967C66.6103 6.32902 66.8011 6.25 67 6.25ZM55 10.25C55.1989 10.25 55.3897 10.329 55.5303 10.4697C55.671 10.6103 55.75 10.8011 55.75 11V13C55.75 13.1989 55.671 13.3897 55.5303 13.5303C55.3897 13.671 55.1989 13.75 55 13.75C54.8011 13.75 54.6103 13.671 54.4697 13.5303C54.329 13.3897 54.25 13.1989 54.25 13V11C54.25 10.8011 54.329 10.6103 54.4697 10.4697C54.6103 10.329 54.8011 10.25 55 10.25ZM71 10.25C71.1989 10.25 71.3897 10.329 71.5303 10.4697C71.671 10.6103 71.75 10.8011 71.75 11V13C71.75 13.1989 71.671 13.3897 71.5303 13.5303C71.3897 13.671 71.1989 13.75 71 13.75C70.8011 13.75 70.6103 13.671 70.4697 13.5303C70.329 13.3897 70.25 13.1989 70.25 13V11C70.25 10.8011 70.329 10.6103 70.4697 10.4697C70.6103 10.329 70.8011 10.25 71 10.25Z" fill="#50A4C2"/>
</svg>
